<svg viewBox="0 0 119 25" id="svg5" xmlns="http://www.w3.org/2000/svg" xmlns:svg="http://www.w3.org/2000/svg"><defs id="defs9"/><path d="M5 0H114a5 5 0 015 5v15a5 5 0 01-5 5H5a5 5 0 01-5-5V5a5 5 0 015-5z" style="fill:#000" id="path2"/><g aria-label="DS2484" id="component-text" style="font-weight:900;font-size:25px;font-family:Montserrat;letter-spacing:1.1px;fill:#fffffc"><path d="M6.425 21V3.5h8.625q2.925.0 5.15 1.075 2.225 1.05 3.475 3t1.25 4.65q0 2.725-1.25 4.7-1.25 1.95-3.475 3.025Q17.975 21 15.05 21zm5.9-4.6H14.8q1.25.0 2.175-.475.95-.475 1.475-1.4.525-.95.525-2.3.0-1.325-.525-2.25Q17.925 9.05 16.975 8.575 16.05 8.1 14.8 8.1h-2.475z" id="path11"/><path d="m34.700006 21.4q-2.2.0-4.25-.5-2.05-.5-3.375-1.3l1.9-4.3q1.25.725 2.775 1.175 1.55.425 3 .425.85.0 1.325-.1.5-.125.725-.325.225-.225.225-.525.0-.475-.525-.75t-1.4-.45q-.85-.2-1.875-.4-1.025-.225-2.075-.575-1.025-.35-1.9-.925-.85-.575-1.375-1.5-.525-.95-.525-2.35.0-1.625.9-2.95.925-1.35 2.725-2.15 1.825-.8 4.525-.8 1.775.0 3.5.375t3.1 1.15l-1.775 4.275q-1.3-.65-2.525-.975-1.2-.325-2.35-.325-.85.0-1.35.15t-.725.4q-.2.25-.2.55.0.45.525.725.525.25 1.375.425.875.175 1.9.375 1.05.2 2.075.55 1.025.35 1.875.925.875.575 1.4 1.5t.525 2.3q0 1.6-.925 2.95-.9 1.325-2.7 2.15-1.8.8-4.525.8z" id="path13"/><path d="m44.974994 21v-3.625l6.325-5.85q.6-.575.875-1 .3-.425.4-.75.1-.35.1-.65.0-.65-.425-1-.425-.375-1.275-.375-.775.0-1.475.425-.7.4-1.1 1.2l-4.45-2.225q.95-1.8 2.85-2.925t4.725-1.125q2.075.0 3.675.675 1.6.675 2.5 1.9.9 1.225.9 2.9.0.85-.225 1.7-.2.85-.85 1.8-.65.925-1.925 2.075l-4.75 4.325-.925-2.05h9.075V21z" id="path15"/><path d="m61.149989 18v-3.75l7.425-10.75h6.05l-7.15 10.75-2.75-.825h13.55V18zm9.075 3v-3l.175-4.575V10.75h5.55V21z" id="path17"/><path d="m88.199991 21.4q-2.325.0-4.1-.675-1.75-.7-2.75-1.95-1-1.275-1-2.975.0-1.7 1.025-2.9 1.025-1.2 2.8-1.825 1.775-.625 4.025-.625t4.025.625 2.8 1.825q1.025 1.2 1.025 2.9t-1 2.975q-1 1.25-2.775 1.95-1.75.675-4.075.675zm0-3.975q.85.0 1.375-.475.55-.5.55-1.35t-.55-1.325q-.525-.5-1.375-.5t-1.4.5q-.525.475-.525 1.325t.525 1.35q.55.475 1.4.475zm0-4.125q-2.05.0-3.7-.575-1.625-.6-2.575-1.7-.95-1.125-.95-2.7.0-1.6.925-2.75.925-1.175 2.55-1.825 1.625-.65 3.75-.65t3.75.65q1.625.65 2.55 1.825.925 1.15.925 2.75.0 1.575-.95 2.7-.95 1.1-2.575 1.7-1.625.575-3.7.575zm0-3.225q.6.0 1-.4t.4-1.1q0-.725-.4-1.1-.4-.4-1-.4t-1 .4q-.4.375-.4 1.1.0.7.4 1.1t1 .4z" id="path19"/><path d="M98.349979 18V14.25L105.77498 3.5h6.05l-7.15 10.75-2.75-.825h13.55V18zm9.075001 3v-3l.175-4.575V10.75h5.55V21z" id="path21"/></g></svg>