<svg viewBox="0 0 115 25" id="svg5" xmlns="http://www.w3.org/2000/svg" xmlns:svg="http://www.w3.org/2000/svg"><defs id="defs9"/><path d="M5 0H110a5 5 0 015 5v15a5 5 0 01-5 5H5a5 5 0 01-5-5V5a5 5 0 015-5z" style="fill:#000" id="path2"/><g aria-label="LN882x" id="component-text" style="font-weight:900;font-size:25px;font-family:Montserrat;letter-spacing:1.1px;fill:#fffffc"><path d="M6.425 21V3.5h5.9v12.925h7.9V21z" id="path11"/><path d="M22.950015 21V3.5h4.85l8.9 10.65h-2.25V3.5h5.75V21h-4.85l-8.9-10.65h2.25V21z" id="path13"/><path d="m51.200037 21.4q-2.325.0-4.1-.675-1.75-.7-2.75-1.95-1-1.275-1-2.975.0-1.7 1.025-2.9 1.025-1.2 2.8-1.825t4.025-.625 4.025.625 2.8 1.825 1.025 2.9-1 2.975q-1 1.25-2.775 1.95-1.75.675-4.075.675zm0-3.975q.85.0 1.375-.475.55-.5.55-1.35t-.55-1.325q-.525-.5-1.375-.5t-1.4.5q-.525.475-.525 1.325t.525 1.35q.55.475 1.4.475zm0-4.125q-2.05.0-3.7-.575-1.625-.6-2.575-1.7-.95-1.125-.95-2.7.0-1.6.925-2.75.925-1.175 2.55-1.825 1.625-.65 3.75-.65t3.75.65q1.625.65 2.55 1.825.925 1.15.925 2.75.0 1.575-.95 2.7-.95 1.1-2.575 1.7-1.625.575-3.7.575zm0-3.225q.6.0 1-.4t.4-1.1q0-.725-.4-1.1-.4-.4-1-.4t-1 .4q-.4.375-.4 1.1.0.7.4 1.1t1 .4z" id="path15"/><path d="m69.250024 21.4q-2.325.0-4.1-.675-1.75-.7-2.75-1.95-1-1.275-1-2.975.0-1.7 1.025-2.9 1.025-1.2 2.8-1.825t4.025-.625 4.025.625 2.8 1.825q1.025 1.2 1.025 2.9t-1 2.975q-1 1.25-2.775 1.95-1.75.675-4.075.675zm0-3.975q.85.0 1.375-.475.55-.5.55-1.35t-.55-1.325q-.525-.5-1.375-.5t-1.4.5q-.525.475-.525 1.325t.525 1.35q.55.475 1.4.475zm0-4.125q-2.05.0-3.7-.575-1.625-.6-2.575-1.7-.95-1.125-.95-2.7.0-1.6.925-2.75.925-1.175 2.55-1.825 1.625-.65 3.75-.65t3.75.65q1.625.65 2.55 1.825.925 1.15.925 2.75.0 1.575-.95 2.7-.95 1.1-2.575 1.7-1.625.575-3.7.575zm0-3.225q.6.0 1-.4t.4-1.1q0-.725-.4-1.1-.4-.4-1-.4t-1 .4q-.4.375-.4 1.1.0.7.4 1.1t1 .4z" id="path17"/><path d="m79.525012 21v-3.625l6.325-5.85q.6-.575.875-1 .3-.425.4-.75.1-.35.1-.65.0-.65-.425-1-.425-.375-1.275-.375-.775.0-1.475.425-.7.4-1.1 1.2l-4.45-2.225q.95-1.8 2.85-2.925 1.9-1.125 4.725-1.125 2.075.0 3.675.675t2.5 1.9q.9 1.225.9 2.9.0.85-.225 1.7-.2.85-.85 1.8-.65.925-1.925 2.075l-4.75 4.325-.925-2.05h9.075V21z" id="path19"/><path d="m94.900008 21 6.450002-8.45-.15 3.25-6.150002-8.475h6.375002l3.025 4.525-2.35.175 3.325-4.7h5.925l-6.175 8.2V12.4l6.3 8.6h-6.475l-3.125-4.825 2.375.325-3.225 4.5z" id="path21"/></g></svg>
