<svg xmlns="http://www.w3.org/2000/svg" xmlns:xlink="http://www.w3.org/1999/xlink" width="100%" height="100%" version="1.1" viewBox="0 0 136 36" xml:space="preserve" style="fill-rule:evenodd;clip-rule:evenodd;stroke-linejoin:round;stroke-miterlimit:2"><g><g><path d="M0.141,-0.694L0.325,-0.694L0.265,-0.409L0.519,-0.694L0.753,-0.694L0.429,-0.358L0.632,-0L0.417,-0L0.249,-0.334L0.178,-0L-0.007,-0L0.141,-0.694Z" style="fill-rule:nonzero" transform="matrix(1,0,0,1,-25.2818,-56.1734) matrix(45.9389,0,0,45.9389,25.5958,91.1788)"/></g><g><path d="M0.495,-0.762L0.495,-0.558L0,-0.558L0,-0.234L0.495,-0.234L0.495,-0.031L0.865,-0.396L0.495,-0.762Z" style="fill-rule:nonzero" transform="matrix(1,0,0,1,-25.2818,-56.1734) matrix(45.9389,0,0,45.9389,71.5347,91.1788)"/></g><g><path d="M0.067,-0.694L0.25,-0.694L0.29,-0.319C0.292,-0.301 0.293,-0.283 0.294,-0.266C0.295,-0.248 0.296,-0.231 0.296,-0.214C0.296,-0.202 0.296,-0.19 0.295,-0.178C0.295,-0.166 0.294,-0.154 0.293,-0.142L0.298,-0.142C0.304,-0.165 0.313,-0.189 0.323,-0.214C0.334,-0.239 0.346,-0.265 0.361,-0.293L0.571,-0.694L0.766,-0.694L0.381,-0L0.158,-0L0.067,-0.694Z" style="fill-rule:nonzero" transform="matrix(1,0,0,1,-25.2818,-56.1734) matrix(45.9389,0,0,45.9389,125.426,91.1788)"/></g></g></svg>