<?xml version="1.0" encoding="UTF-8" standalone="no"?>
<!DOCTYPE svg PUBLIC "-//W3C//DTD SVG 1.1//EN" "http://www.w3.org/Graphics/SVG/1.1/DTD/svg11.dtd">
<svg width="100%" height="100%" viewBox="0 0 512 512" version="1.1" xmlns="http://www.w3.org/2000/svg" xmlns:xlink="http://www.w3.org/1999/xlink" xml:space="preserve" xmlns:serif="http://www.serif.com/" style="fill-rule:evenodd;clip-rule:evenodd;stroke-linecap:round;stroke-miterlimit:1;">
    <g>
        <g transform="matrix(2.61157,0,0,2.61157,-230.708,9.05292)">
            <path d="M161.272,16.463L161.272,63.06C161.272,65.475 159.311,67.436 156.896,67.436L110.299,67.436C107.885,67.436 105.924,65.475 105.924,63.06L105.924,16.463C105.924,14.048 107.885,12.087 110.299,12.087L156.896,12.087C159.311,12.087 161.272,14.048 161.272,16.463Z" style="stroke:black;stroke-width:2.04px;"/>
        </g>
        <g transform="matrix(1.08055,0,0,1,-9.86308,0.726469)">
            <path d="M26.045,81.398L26.042,63.981L211.533,63.981L211.533,98.799L26.048,98.799L26.042,98.799L26.045,81.398Z"/>
        </g>
        <g transform="matrix(1.08055,0,0,1,-10.4534,62.8697)">
            <path d="M26.045,81.39L26.042,63.981L211.533,63.981L211.533,98.799L26.042,98.799L26.045,81.39Z"/>
        </g>
        <g transform="matrix(6.61646e-17,-1.08055,1,6.12323e-17,5.73022,240.948)">
            <path d="M26.045,81.398L26.042,63.981L211.533,63.981L211.533,98.799L26.048,98.799L26.042,98.799L26.045,81.398Z"/>
        </g>
        <g transform="matrix(6.61646e-17,-1.08055,1,6.12323e-17,67.8734,241.538)">
            <path d="M26.045,81.39L26.042,63.981L211.533,63.981L211.533,98.799L26.042,98.799L26.045,81.39Z"/>
        </g>
    </g>
    <g transform="matrix(1,0,0,1,275.917,284.021)">
        <g transform="matrix(2.61157,0,0,2.61157,-230.708,9.05292)">
            <path d="M161.272,16.463L161.272,63.06C161.272,65.475 159.311,67.436 156.896,67.436L110.299,67.436C107.885,67.436 105.924,65.475 105.924,63.06L105.924,16.463C105.924,14.048 107.885,12.087 110.299,12.087L156.896,12.087C159.311,12.087 161.272,14.048 161.272,16.463Z" style="stroke:black;stroke-width:2.04px;"/>
        </g>
        <g transform="matrix(1.08055,0,0,1,-9.86308,0.726469)">
            <path d="M26.045,81.39L26.042,63.981L211.533,63.981L211.533,98.799L26.042,98.799L26.045,81.39Z"/>
        </g>
        <g transform="matrix(1.08055,0,0,1,-10.4534,62.8697)">
            <path d="M26.045,81.398L26.042,63.981L211.533,63.981L211.533,98.799L26.048,98.799L26.042,98.799L26.045,81.398Z"/>
        </g>
        <g transform="matrix(6.61646e-17,-1.08055,1,6.12323e-17,5.73022,240.948)">
            <path d="M26.045,81.39L26.042,63.981L211.533,63.981L211.533,98.799L26.042,98.799L26.045,81.39Z"/>
        </g>
        <g transform="matrix(6.61646e-17,-1.08055,1,6.12323e-17,67.8734,241.538)">
            <path d="M26.042,98.799L26.045,81.382L26.042,63.981L26.048,63.981L211.533,63.981L211.533,98.799L26.042,98.799Z"/>
        </g>
    </g>
    <path d="M149.702,295.924L118.192,238.822L91.416,298.291C105.396,283.128 134.539,281.944 149.702,295.924Z"/>
    <path d="M423.275,213.522L394.109,271.855L364.942,213.522C379.525,228.105 408.692,228.105 423.275,213.522Z"/>
    <path d="M120.086,285.45C124.227,300.434 135.119,312.982 149.994,318.997C169.145,326.741 191.079,322.11 205.465,307.285C241.047,270.619 281.887,228.535 316.447,192.921C329.269,179.709 348.822,175.59 365.883,182.508C382.945,189.425 394.109,205.998 394.109,224.409L394.109,225.189" style="fill:none;stroke:black;stroke-width:19.44px;stroke-linecap:butt;"/>
</svg>
