<svg viewBox="0 0 147 25" id="svg5" xmlns="http://www.w3.org/2000/svg" xmlns:svg="http://www.w3.org/2000/svg"><defs id="defs9"/><path d="M5 0H142a5 5 0 015 5v15a5 5 0 01-5 5H5a5 5 0 01-5-5V5a5 5 0 015-5z" style="fill:#000" id="path2"/><g aria-label="ESP-NOW" id="component-text" style="font-weight:900;font-size:25px;font-family:Montserrat;letter-spacing:1.1px;fill:#fffffc"><path d="m11.825 10h7.8v4.25h-7.8zm.4 6.55h8.75V21H6.425V3.5H20.65v4.45h-8.425z" id="path11"/><path d="m30.875009 21.4q-2.2.0-4.25-.5t-3.375-1.3l1.9-4.3q1.25.725 2.775 1.175 1.55.425 3 .425.85.0 1.325-.1.5-.125.725-.325.225-.225.225-.525.0-.475-.525-.75t-1.4-.45q-.85-.2-1.875-.4-1.025-.225-2.075-.575-1.025-.35-1.9-.925-.85-.575-1.375-1.5-.525-.95-.525-2.35.0-1.625.9-2.95.925-1.35 2.725-2.15 1.825-.8 4.525-.8 1.775.0 3.5.375t3.1 1.15l-1.775 4.275q-1.3-.65-2.525-.975-1.2-.325-2.35-.325-.85.0-1.35.15t-.725.4q-.2.25-.2.55.0.45.525.725.525.25 1.375.425.875.175 1.9.375 1.05.2 2.075.55 1.025.35 1.875.925.875.575 1.4 1.5t.525 2.3q0 1.6-.925 2.95-.9 1.325-2.7 2.15-1.8.8-4.525.8z" id="path13"/><path d="M41.874997 21V3.5h8.425q2.45.0 4.225.8 1.8.8 2.775 2.3.975 1.475.975 3.5t-.975 3.5-2.775 2.3q-1.775.8-4.225.8h-5.15l2.625-2.525V21zm5.9-6.175-2.625-2.675h4.775q1.225.0 1.8-.55.6-.55.6-1.5t-.6-1.5q-.575-.55-1.8-.55h-4.775l2.625-2.675z" id="path15"/><path d="m60.999992 15.9v-4.25h7.5v4.25z" id="path17"/><path d="M72.149976 21V3.5h4.85l8.9 10.65h-2.25V3.5h5.75V21h-4.85l-8.9-10.65h2.25V21z" id="path19"/><path d="m102.55 21.4q-2.15.0-3.974997-.675-1.8-.675-3.125-1.9-1.325-1.25-2.075-2.925-.725-1.675-.725-3.65.0-2 .725-3.65.75-1.675 2.075-2.9 1.325-1.25 3.125-1.925Q100.4 3.1 102.525 3.1q2.15.0 3.95.675 1.8.675 3.125 1.925 1.325 1.225 2.05 2.9.75 1.65.75 3.65.0 1.975-.75 3.65-.725 1.675-2.05 2.925-1.325 1.225-3.125 1.9-1.8.675-3.925.675zm-.025-4.775q.825.0 1.525-.3.725-.3 1.25-.85.55-.575.85-1.375.3-.825.3-1.85t-.3-1.825q-.3-.825-.85-1.375-.525-.575-1.25-.875-.7-.3-1.525-.3t-1.55.3q-.7.3-1.249997.875-.525.55-.825 1.375-.3.8-.3 1.825.0 1.025.3 1.85.3.8.825 1.375.549997.55 1.249997.85.725.3 1.55.3z" id="path21"/><path d="m119.45 21-5.6-17.5h6.075l4.525 14.775H121.4L126.2 3.5h5.425l4.475 14.775h-2.925L137.9 3.5h5.6L137.9 21h-6.325l-3.65-12.1h1.7l-3.85 12.1z" id="path23"/></g></svg>